# xmcd
#
# Track frame offsets: 
#        150
#        215137
#        276687
#
# Disc length: 4793 seconds
#
# Revision: 3
# Processed by: cddbd v1.5.2PL0 Copyright (c) Steve Scherf et al.
# Submitted via: ExactAudioCopy v1.5
#
DISCID=3412b703
DTITLE=Klaus Schulze - Eternal [The 70th Birthday Edition] [CD 1)
DYEAR=2017
DGENRE=Electronic
TTITLE0=Rhodes Romance
TTITLE1=Minority Report
TTITLE2=Mongolia
EXTD=
EXTT0=
EXTT1=
EXTT2=
PLAYORDER=
